Coordinates
version=1
nRows=10
nColumns=22
inDegrees=yes

Units are S.I. units (second, meters, Newtons, ...)
If the header above contains a line with 'inDegrees', this indicates whether rotational values are in degrees (yes) or radians (no).

endheader
time	pelvis_tilt	pelvis_list	pelvis_rotation	pelvis_tx	pelvis_ty	pelvis_tz	hip_flexion_r	hip_adduction_r	hip_rotation_r	knee_angle_r	ankle_angle_r	subtalar_angle_r	hip_flexion_l	hip_adduction_l	hip_rotation_l	knee_angle_l	ankle_angle_l	subtalar_angle_l	lumbar_extension	lumbar_bending	lumbar_rotation
      3.16000000	      2.38291945	      1.95733298	    -22.12509139	      1.42069572	      0.90211778	      1.06777610	      3.80179594	     -1.81596255	     -6.68108660	    -15.20915646	     15.36975321	     -7.37812545	      1.30850143	      1.15392734	     -1.92231851	    -21.82264784	     14.13907362	      0.80585514	     -9.98190228	     -4.71343163	      2.96669209
      3.17000000	      2.19013453	      1.93771929	    -21.99864973	      1.42268479	      0.90191418	      1.06976266	      3.58531628	     -1.66157264	     -6.91718096	    -14.85412615	     15.41845372	     -7.19214372	      1.24151824	      0.93933675	     -1.91530011	    -21.65427367	     14.24142627	      0.88867638	     -9.87393889	     -4.58539320	      3.00486411
      3.18000000	      2.01452072	      1.91142381	    -21.86967314	      1.42461670	      0.90165929	      1.07163374	      3.36558527	     -1.50535767	     -7.11241454	    -14.52022371	     15.52138463	     -7.01570172	      1.16230963	      0.73172729	     -1.87209410	    -21.49008163	     14.33311235	      0.97875182	     -9.77407865	     -4.45579252	      2.99112897
      3.19000000	      1.86466892	      1.88744878	    -21.74043612	      1.42651000	      0.90136889	      1.07338807	      3.13584019	     -1.36488835	     -7.32812122	    -14.20012593	     15.61327744	     -6.82847356	      1.06903314	      0.54601275	     -1.79816524	    -21.33838565	     14.43187379	      1.09426680	     -9.68546255	     -4.34349793	      2.97860477
      3.20000000	      1.72356336	      1.86542218	    -21.61578396	      1.42835552	      0.90101620	      1.07503812	      2.91801733	     -1.22841666	     -7.51894580	    -13.90551125	     15.73144733	     -6.67570564	      0.98069020	      0.37281865	     -1.71197854	    -21.20301115	     14.52978142	      1.20377484	     -9.59149930	     -4.23768517	      2.96074993
      3.21000000	      1.57852653	      1.85550304	    -21.51450733	      1.43011712	      0.90058103	      1.07660759	      2.73709443	     -1.09817683	     -7.64428657	    -13.64147443	     15.90986141	     -6.59789078	      0.91960137	      0.21984148	     -1.61869913	    -21.09576245	     14.60921656	      1.26402736	     -9.47700843	     -4.15134148	      2.98112102
      3.22000000	      1.46062932	      1.81636345	    -21.38628957	      1.43190885	      0.90014381	      1.07807413	      2.52131742	     -0.95319317	     -7.85281941	    -13.38761137	     16.02372071	     -6.51468606	      0.81987101	      0.05063622	     -1.52507786	    -20.98643411	     14.75146030	      1.36443524	     -9.38522906	     -4.03848543	      2.90819935
      3.23000000	      1.33334686	      1.80120896	    -21.30063339	      1.43360486	      0.89962289	      1.07949859	      2.35548936	     -0.82354803	     -7.96463136	    -13.16667300	     16.22049726	     -6.47574325	      0.75291851	     -0.08765742	     -1.44600382	    -20.90243127	     14.84300100	      1.40905656	     -9.26455083	     -3.96044050	      2.92114269
      3.24000000	      1.22637518	      1.75685858	    -21.19212008	      1.43531064	      0.89910170	      1.08084098	      2.16181951	     -0.67510845	     -8.14242918	    -12.95289573	     16.36477397	     -6.45939229	      0.65516628	     -0.24699984	     -1.38006046	    -20.81736704	     15.00576652	      1.47322443	     -9.16552181	     -3.85688218	      2.86117320
      3.25000000	      1.11781130	      1.72013724	    -21.11738268	      1.43694088	      0.89853198	      1.08216256	      1.99604958	     -0.53191836	     -8.26180141	    -12.76265029	     16.55073158	     -6.46370855	      0.56574901	     -0.39334195	     -1.34532806	    -20.74144538	     15.14847386	      1.50611383	     -9.05324258	     -3.77033401	      2.84254343
